{"title":"Karate.Kids.CAM.XVID.FEEL-FREE","uid":5631631,"size":1350354319,"categoryP":"video","categoryS":"movies","magnet":"?xt=urn:btih:e6b586fbb5f0aac42a97a8f2916b96b0216713b9&amp;dn=Karate.Kids.CAM.XVID.FEEL-FREE&amp;tr=udp%3A%2F%2Ftracker.openbittorrent.com%3A80&amp;tr=udp%3A%2F%2Fopen.demonii.com%3A1337&amp;tr=udp%3A%2F%2Ftracker.coppersurfer.tk%3A6969&amp;tr=udp%3A%2F%2Fexodus.desync.com%3A6969","seeders":0,"leechers":0,"uploader":"hiest","files":6,"time":1276707004,"description":"\n12-year-old Dre Parker could've been the most popular kid in Detroit, but his mother's latest career move has landed him in China. Dre immediately falls for his classmate Mei Ying - and the feeling is mutual - but cultural differences make such a friendship impossible. Even worse, Dre's feelings make an enemy of the class bully, Cheng. In the land of kung fu, Dre knows only a little karate, and Cheng puts &quot;the karate kid&quot; on the floor with ease. With no friends in a strange land, Dre has nowhere to turn but maintenance man Mr. Han, who is secretly a master of kung fu. As Han teaches Dre that kung fu is not about punches and parries, but maturity and calm, Dre realizes that facing down the bullies will be the fight of his life.\n\n \nMOVIEmeter: Up 500% in popularity this week. &lt;a href=&quot;\nhttp://www.imdb.com/title/tt1155076/&quot; rel=&quot;nofollow&quot; target=&quot;_NEW&quot;&gt;\nhttp://www.imdb.com/title/tt1155076/&lt;/a&gt;\nGenre:Action | Drama | Family | Sport\n\n \nVideo\nFormat : xvid\nCodec ID : xvid\nDuration : 2h 13mn\nBit rate : 1 199 Kbps\nWidth : 704 pixels\nHeight : 304 pixels\nDisplay aspect ratio : 2.35:1\nFrame rate : 29.970 fps\nBits/(Pixel*Frame) : 0.187\nStream size : 1.12 GiB (89%)\n\nAudio\nID : 1\nFormat : MPEG Audio\nFormat version : Version 1\nFormat profile : Layer 3\nMode : Joint stereo\nFormat_Settings_ModeExtension : MS Stereo\nCodec ID : 55\nCodec ID/Hint : MP3\nDuration : 2h 13mn\nBit rate mode : Constant\nBit rate : 128 Kbps\nChannel(s) : 2 channels\nSampling rate : 48.0 KHz\nStream size : 123 MiB (10%)\nAlignment : Aligned on interleaves\nInterleave, duration : 24 ms (0.72 video frame)\n\n\nScreenshots\n &lt;a href=&quot;\nhttp://postimg.com/image/17000/16422.jpg&quot; rel=&quot;nofollow&quot; target=&quot;_NEW&quot;&gt;\nhttp://postimg.com/image/17000/16422.jpg&lt;/a&gt;","torrent":{"xt":"urn:btih:e6b586fbb5f0aac42a97a8f2916b96b0216713b9","amp;dn":"Karate.Kids.CAM.XVID.FEEL-FREE","amp;tr":["udp%3A%2F%2Ftracker.openbittorrent.com%3A80","udp%3A%2F%2Fopen.demonii.com%3A1337","udp%3A%2F%2Ftracker.coppersurfer.tk%3A6969","udp%3A%2F%2Fexodus.desync.com%3A6969"],"infoHash":"e6b586fbb5f0aac42a97a8f2916b96b0216713b9","infoHashBuffer":{"type":"Buffer","data":[230,181,134,251,181,240,170,196,42,151,168,242,145,107,150,176,33,103,19,185]},"announce":[],"urlList":[]}}